<svg width="253" height="67" viewBox="0 0 253 67" fill="none" xmlns="http://www.w3.org/2000/svg">
<g clip-path="url(#clip0_4_43)">
<path d="M85.3181 1.98235H32.8147C15.779 1.98235 1.96887 15.8869 1.96887 33.039C1.96887 50.191 15.779 64.0956 32.8147 64.0956H85.3181C102.354 64.0956 116.164 50.191 116.164 33.039C116.164 15.8869 102.354 1.98235 85.3181 1.98235Z" stroke="white" stroke-width="4.48492"/>
<path d="M40.6902 31.7174H44.6279V66.0779H40.6902V31.7174Z" fill="white"/>
<path d="M22.839 33.5676C22.839 32.5457 23.6617 31.7174 24.6766 31.7174H41.2152V35.6821H24.6766C23.6617 35.6821 22.839 34.8537 22.839 33.8319V33.5676Z" fill="white"/>
<path d="M79.8562 2.3477L76.0526 1.32156L59.4524 63.6978L63.256 64.7239L79.8562 2.3477Z" fill="white"/>
<path d="M104.828 31.7174C105.843 31.7174 106.666 32.5457 106.666 33.5676V33.8319C106.666 34.8537 105.843 35.6821 104.828 35.6821H42.5278V31.7174H104.828Z" fill="white"/>
<path d="M79.9336 1.32155L76.13 2.34769L92.4635 63.7218L96.2671 62.6957L79.9336 1.32155Z" fill="white"/>
</g>
<path d="M147.964 24.0376L141.402 44.0389H136.116L145.081 19.9114H148.445L147.964 24.0376ZM153.416 44.0389L146.838 24.0376L146.307 19.9114H149.704L158.719 44.0389H153.416ZM153.118 35.0574V38.9516H140.375V35.0574H153.118ZM164.9 29.5558V50.9325H160.128V26.109H164.552L164.9 29.5558ZM176.251 34.8751V35.2231C176.251 36.5267 176.097 37.7364 175.787 38.8522C175.489 39.968 175.047 40.9401 174.462 41.7687C173.876 42.5862 173.147 43.227 172.274 43.6909C171.412 44.1439 170.418 44.3704 169.291 44.3704C168.198 44.3704 167.248 44.1494 166.441 43.7075C165.635 43.2656 164.955 42.647 164.403 41.8516C163.862 41.0451 163.425 40.1116 163.094 39.051C162.762 37.9905 162.508 36.8526 162.332 35.6374V34.726C162.508 33.4224 162.762 32.2293 163.094 31.1466C163.425 30.0529 163.862 29.1084 164.403 28.3129C164.955 27.5065 165.629 26.8823 166.425 26.4404C167.231 25.9985 168.176 25.7776 169.258 25.7776C170.396 25.7776 171.396 25.993 172.258 26.4238C173.13 26.8547 173.859 27.4733 174.445 28.2798C175.042 29.0863 175.489 30.0474 175.787 31.1632C176.097 32.279 176.251 33.5163 176.251 34.8751ZM171.462 35.2231V34.8751C171.462 34.1128 171.396 33.4113 171.263 32.7706C171.142 32.1188 170.943 31.5498 170.667 31.0638C170.402 30.5777 170.048 30.2021 169.606 29.9369C169.175 29.6607 168.651 29.5226 168.032 29.5226C167.38 29.5226 166.822 29.6276 166.358 29.8375C165.905 30.0474 165.535 30.3512 165.248 30.7489C164.961 31.1466 164.745 31.6216 164.602 32.174C164.458 32.7264 164.37 33.3506 164.337 34.0466V36.3499C164.392 37.1674 164.547 37.9021 164.801 38.5539C165.055 39.1946 165.447 39.7028 165.977 40.0784C166.507 40.4541 167.203 40.6419 168.065 40.6419C168.695 40.6419 169.225 40.5038 169.656 40.2276C170.087 39.9404 170.435 39.5482 170.7 39.051C170.976 38.5539 171.169 37.9794 171.28 37.3276C171.401 36.6758 171.462 35.9743 171.462 35.2231ZM183.874 18.5857V44.0389H179.101V18.5857H183.874ZM183.195 34.4443H181.885C181.896 33.1959 182.062 32.047 182.383 30.9975C182.703 29.9369 183.161 29.02 183.758 28.2467C184.355 27.4623 185.067 26.8547 185.896 26.4238C186.735 25.993 187.663 25.7776 188.68 25.7776C189.563 25.7776 190.364 25.9046 191.082 26.1587C191.812 26.4017 192.436 26.7995 192.955 27.3518C193.485 27.8931 193.894 28.6057 194.181 29.4895C194.468 30.3733 194.612 31.4449 194.612 32.7043V44.0389H189.806V32.6712C189.806 31.8757 189.69 31.2516 189.458 30.7986C189.237 30.3346 188.912 30.0087 188.481 29.8209C188.061 29.6221 187.542 29.5226 186.923 29.5226C186.238 29.5226 185.653 29.6497 185.167 29.9038C184.691 30.1579 184.31 30.5114 184.023 30.9643C183.736 31.4062 183.526 31.9255 183.393 32.522C183.261 33.1186 183.195 33.7593 183.195 34.4443ZM206.494 44.3704C205.102 44.3704 203.853 44.1494 202.748 43.7075C201.644 43.2546 200.705 42.6304 199.931 41.835C199.169 41.0396 198.584 40.1171 198.175 39.0676C197.766 38.0071 197.562 36.8802 197.562 35.6871V35.0243C197.562 33.6654 197.755 32.4226 198.142 31.2957C198.528 30.1689 199.081 29.1912 199.799 28.3627C200.528 27.5341 201.412 26.8989 202.45 26.457C203.489 26.004 204.66 25.7776 205.963 25.7776C207.234 25.7776 208.361 25.9875 209.344 26.4073C210.327 26.8271 211.15 27.4236 211.813 28.197C212.487 28.9703 212.995 29.8983 213.337 30.9809C213.68 32.0525 213.851 33.2456 213.851 34.5603V36.5488H199.6V33.3671H209.161V33.0026C209.161 32.3397 209.04 31.7487 208.797 31.2295C208.565 30.6992 208.211 30.2794 207.736 29.9701C207.261 29.6607 206.654 29.5061 205.914 29.5061C205.284 29.5061 204.743 29.6442 204.29 29.9203C203.837 30.1965 203.467 30.5832 203.179 31.0803C202.903 31.5775 202.693 32.163 202.55 32.8369C202.417 33.4997 202.351 34.2288 202.351 35.0243V35.6871C202.351 36.4052 202.45 37.068 202.649 37.6756C202.859 38.2832 203.152 38.808 203.527 39.2499C203.914 39.6918 204.378 40.0343 204.919 40.2773C205.472 40.5203 206.096 40.6419 206.792 40.6419C207.654 40.6419 208.454 40.4761 209.195 40.1447C209.946 39.8023 210.592 39.2886 211.133 38.6036L213.453 41.1224C213.078 41.6637 212.564 42.183 211.912 42.6801C211.272 43.1772 210.498 43.586 209.592 43.9064C208.686 44.2157 207.654 44.3704 206.494 44.3704ZM221.242 29.9369V44.0389H216.469V26.109H220.944L221.242 29.9369ZM220.546 34.4443H219.253C219.253 33.1186 219.425 31.9255 219.767 30.8649C220.109 29.7933 220.59 28.8819 221.209 28.1307C221.827 27.3684 222.562 26.7884 223.413 26.3907C224.274 25.9819 225.235 25.7776 226.296 25.7776C227.136 25.7776 227.903 25.8991 228.599 26.1421C229.295 26.3852 229.892 26.7718 230.389 27.3021C230.897 27.8324 231.284 28.5339 231.549 29.4066C231.825 30.2794 231.963 31.3455 231.963 32.6049V44.0389H227.158V32.5883C227.158 31.7929 227.047 31.1742 226.826 30.7323C226.605 30.2904 226.279 29.9811 225.849 29.8043C225.429 29.6165 224.91 29.5226 224.291 29.5226C223.65 29.5226 223.092 29.6497 222.617 29.9038C222.153 30.1579 221.767 30.5114 221.457 30.9643C221.159 31.4062 220.933 31.9255 220.778 32.522C220.623 33.1186 220.546 33.7593 220.546 34.4443ZM245.27 39.9956V32.0083C245.27 31.4338 245.176 30.9422 244.988 30.5335C244.8 30.1137 244.508 29.7878 244.11 29.5558C243.723 29.3238 243.221 29.2078 242.602 29.2078C242.072 29.2078 241.613 29.3017 241.227 29.4895C240.84 29.6663 240.542 29.9259 240.332 30.2683C240.122 30.5998 240.017 30.9919 240.017 31.4449H235.244C235.244 30.6826 235.421 29.959 235.775 29.2741C236.128 28.5891 236.642 27.987 237.316 27.4678C237.99 26.9375 238.791 26.5233 239.719 26.225C240.658 25.9267 241.707 25.7776 242.867 25.7776C244.259 25.7776 245.496 26.0096 246.579 26.4736C247.662 26.9375 248.512 27.6335 249.131 28.5615C249.761 29.4895 250.076 30.6495 250.076 32.0414V39.7139C250.076 40.6971 250.136 41.5036 250.258 42.1333C250.379 42.7519 250.556 43.2932 250.788 43.7572V44.0389H245.966C245.734 43.5529 245.557 42.9452 245.436 42.2161C245.325 41.4759 245.27 40.7358 245.27 39.9956ZM245.9 33.1186L245.933 35.8197H243.265C242.635 35.8197 242.088 35.8915 241.624 36.0351C241.16 36.1787 240.779 36.3831 240.481 36.6482C240.183 36.9023 239.962 37.2006 239.818 37.5431C239.685 37.8855 239.619 38.2611 239.619 38.6699C239.619 39.0787 239.713 39.4487 239.901 39.7802C240.089 40.1005 240.359 40.3546 240.713 40.5424C241.066 40.7192 241.481 40.8076 241.956 40.8076C242.674 40.8076 243.298 40.664 243.828 40.3767C244.359 40.0895 244.767 39.736 245.055 39.3162C245.353 38.8964 245.507 38.4987 245.519 38.1231L246.778 40.1447C246.601 40.5977 246.358 41.0672 246.049 41.5533C245.751 42.0394 245.369 42.4978 244.905 42.9287C244.441 43.3485 243.884 43.6965 243.232 43.9727C242.58 44.2378 241.807 44.3704 240.912 44.3704C239.774 44.3704 238.741 44.1439 237.813 43.6909C236.896 43.227 236.167 42.5917 235.626 41.7853C235.095 40.9678 234.83 40.0398 234.83 39.0013C234.83 38.0623 235.007 37.2282 235.36 36.4991C235.714 35.77 236.233 35.1568 236.918 34.6597C237.614 34.1515 238.481 33.7704 239.52 33.5163C240.558 33.2511 241.762 33.1186 243.132 33.1186H245.9Z" fill="white"/>
<defs>
<clipPath id="clip0_4_43">
<rect width="118.133" height="66.0779" fill="white"/>
</clipPath>
</defs>
</svg>
